<svg id="Layer_1" data-name="Layer 1" xmlns="http://www.w3.org/2000/svg" viewBox="0 0 607.05 429.51"><defs><style>.cls-1{fill:#fff;}</style></defs><path class="cls-1" d="M505.79,136.86A48.48,48.48,0,0,1,495,142.75c-3,1.13-6.27,2.27-8.74-1.48-2,5.83-7.29,5.43-11.35,6.81s-8.41,4.54-12.48-.47c-.48,4.34-9.55,10.52-15,10.53-.33-.29-.68-.77-1-.09-.05.1.35.44.54.67.38,2.56-1.67,3.62-3.14,5-1.85,1.77-3.75,3.51-5.63,5.26-4.09,2.57-6.65,6.74-10.93,9.77,3.14.4,4.44-1.48,5.9-2.91,2.22-2.18,4.07-4.73,6.71-6.46l23-.55a20.25,20.25,0,0,1,6.59,4.28.42.42,0,0,0,.33.48,7.55,7.55,0,0,0,1.78,3.46c.25.59.5,1.17.76,1.76a1.51,1.51,0,0,0,.86,1.85,10.18,10.18,0,0,0,1.88,4.2l2.33,5.25c.09.74.18,1.48.26,2.22a4.71,4.71,0,0,0,.45,3.81l0,1.6q-1.14,3.76-2.27,7.53l-2.47,3c-6.37-1-10,1-10.2,6.65-.12,3.82-1.36,3.92-4.14,3.06-3.07-2.11-2.57-5.3-2.57-8.35l2.24-6.78c1.18-2.2,3.42-2.84,6.1-3.58-6.63-1.65-8.6-3.6-9-8.4a9.09,9.09,0,0,0,2.07-4.22c-2.06.8-3.06,1.82-3.32,3.53-2.6,2.83-5.88,1-8.8,1.12-9.9.34-8.06,0-10.07-7.16a4.66,4.66,0,0,0-.7-3.76c-1.43,1.26-1.14,2.52-.61,3.81a12,12,0,0,0,.45,5.12l-.63,3.11c-5,3.45-7,10.21-14.53,11.92,2.69,1.21,5.71.8,6,3.27.72,6.61,3.79,12.68,4.13,19.34,0,.52,0,1.05,0,1.57,0,1.23,0,2.46,0,3.69-.14,3.11-1.45,6-1.92,9.07,2.7-2.45,3.36-5.61,3.26-9.05,0-1.24.05-2.49.08-3.74l.78-.72a7.09,7.09,0,0,0,5.09.14,1.1,1.1,0,0,0,1.54-.43l3.81-.45a1.86,1.86,0,0,0,2.23-.24h2.34c2.28.22,2.13,2.28,2.54,3.87a2.3,2.3,0,0,0,1.28-2.93,8.36,8.36,0,0,1,2.25-4.23c1.88-1.92,4.59-2.49,6.65-4.11,4.24,1.63,8,1.57,10.57-2.91l5.28-.07a1.48,1.48,0,0,0,1.54.63c3.69,4.47,4.06,7.12.19,11.53-5.86,6.65-11.2,14-20.41,16.83-3.25,1-6.11,3.28-9.14,5a54.91,54.91,0,0,0-9.56,4L431.32,256c-3.81.14-7.61-.91-11.44-.16l-3.62.13a3.55,3.55,0,0,0-3.09.33l-2.95.25c-6.36.31-12.74.42-19.07,1a13.49,13.49,0,0,0-7.32,2.53c-1.73.15-3.53-.53-5.19.44a1.4,1.4,0,0,0-1.58.35c-4.78.2-9.55.9-14.33,0a2.62,2.62,0,0,0-3-.28l-3.75-.39a7.61,7.61,0,0,0-5.3-.63l-2.22-.14-9.08-2.83-2-.84c-3.73-4.72-1.18-9,1.16-13.09,4.85-8.51,9.28-17.29,11.17-26.88,1.08-5.49,2.12-10.64,5.81-15l2-1.74a2.38,2.38,0,0,0,1.91-1.16.28.28,0,0,0,.37-.25c1.48-.41,3.1-.58,3.94-2.15a4.75,4.75,0,0,0,2.23-2.11,26.34,26.34,0,0,0,6-6.17h0c2.1-1.28,3.24-3.32,4.32-5.41l.92-1.36a1.65,1.65,0,0,0,1.38-1.63c4.43-5.21,9.12-10.18,13.86-15.13,6.65-6.94,9.23-16.38,14.28-24.32a17.64,17.64,0,0,0,2.44-5.69L415,122.64c2.81-3.07,4.45-6.87,6.58-10.37a37,37,0,0,1,9.91-11.12c2.74-2,5.73-2.35,8.4-.47s2.47,5,1.4,7.84c-1,2.58-1.93,5.15-3.05,7.66-2,4.49-4.52,8.41-10.82,7.74,5,3.67,5,3.67,1.91,9-.63,1.08-1.32,2.13-1.92,3.23-1.27,2.32-2.86,3.92-2.88,7.42,0,4.83-.8,11.09-6.6,13.14,3.54,6.08-.45,11-3,16.95a12.09,12.09,0,0,0,4.44-4c2-2.78,1-6.22,2.12-9,4.34-10.44,6.23-21.8,12.33-31.6,2.86-4.6,5.58-9.28,9.77-12.68a60.54,60.54,0,0,1,10.81-6.72c9.95-5.07,16.6-16.12,29.58-15.86-2.23-2.39-5.72,0-7.47-2.78q.33-.09.66-.15l5.35-.87c1.63,1,4.22,1.34,3.78,4-.7,4.13,1.11,8.31-.41,12.38-2.48,4.3-5.32,8.18-9.67,11-3,1.89-5.4,4.55-9.25,1.42.68,4.13.76,4.21-2.32,7.38a54.88,54.88,0,0,1-10.48,8.35c-2.15,1.33-4.05,3.65-7.2,1.25,1.83,3.06.24,5.1-1.27,7.09-2.32,3.08-4.19,6.5-7.45,8.84s-2.92,6.5-5.23,9.4c-1.74,2.19-3.79,4.31-4.88,7.65a16.77,16.77,0,0,0,2.47-2.13c5.11-6.87,10.2-13.74,15.35-20.59,6.81-9.07,15-15.28,26.55-16.65,6.65-.79,13.45-.86,19.87-3.16,4.11-.31,8.17-2.4,12.35-.37C508.37,129.15,508.18,132.9,505.79,136.86Zm-139.4,120.7c8.35-.53,16.74-6.77,18.63-13.66,1.52-5.53,2.77-11.14,4.09-16.72.32-1.35.68-2.77-.15-4.2-1.7.87-1.3,2.29-1.59,3.41C384.07,239.2,381.22,252.3,366.39,257.56Zm47.45-64.39c-9.95,6.13-19,12.91-17.5,26.6C397.18,207.56,406,200.69,413.84,193.17Z"/><path class="cls-1" d="M262.35,94.38c3.82-1.28,7.71-.78,11.59-.43a1.35,1.35,0,0,0,1.57.07l3,.56a1,1,0,0,0,1.48.22l3.72.13,9.16,0,2.21.3,14.34,3.6c6.93,1.95,13.17,5.54,19.74,8.34a29.63,29.63,0,0,0,7.33,3.06l1.12.52a4.7,4.7,0,0,0,3.3,1.33l6.07,2.1a5.79,5.79,0,0,0,3,1.53l2.25.07a66.31,66.31,0,0,0,11.37,1.89l4.38,1.13.49,1.63-3.36.54a1.06,1.06,0,0,0-1.56.22l-2.93.47a8.38,8.38,0,0,0-1.85-.14c-6.54,1-13.05,2.18-19.61,3A66.53,66.53,0,0,1,307.86,121a13.72,13.72,0,0,0-8.64-.31,44.43,44.43,0,0,0,8.53,2.72c2.9.58,3.35,1.59,1.87,4.22-2.36,4.19-1.49,6.19,2.91,8.17,5.45,2.44,9.45.4,10.8-5.53.24-1-.1-2.32,1.65-2.4s3.35-.53,5-.57c10.55-.25,20.83-2.52,31.2-4.15l4.6-.14a1.08,1.08,0,0,0,1.55.37l10.67,1.3v1.71c-1.29.25-2.68-.22-3.9.54a1.13,1.13,0,0,0-1.55.34l-2.22.38a1.73,1.73,0,0,0-2.06.51,5.9,5.9,0,0,0-4,.94c-.87-.32-1.51-.13-1.77.84-2.31.12-4.61.26-6.68,1.48-8.33,2.43-17,3.34-25.27,6.33-4,1.44-7.19,3.94-10.8,5.89a54.32,54.32,0,0,1-11.15,4.46c4.16,1.13,7.79-.29,11.19-2.23A95.8,95.8,0,0,1,331.07,140c6.62-2.71,13.28-4.31,20.33-1.64,3.65,1.38,7.51,1.29,11.33,1.42l4.22.74v.93c-3.12.39-5.81,2-8.67,3.07a17.75,17.75,0,0,0-9.38,2.66l-1.87.61a1.75,1.75,0,0,0-1.95.84c-3.16.78-5.92,2.38-8.78,3.86-4.86,2.51-8.9,6.2-13.6,8.91-2.77.67-5.4,1.78-8.36,1.88-7.67.24-14.52-2.51-21.19-5.69-6.93-3.3-14-4-21.16-1.37.67,1.33,2,1.18,3,.9,3.62-1.05,7.19-.52,10.72.17,7.07,1.39,13.27,5.28,20.22,7.14,3.21.86,6.27,2,9.7,1.81,1.73-.11,3.22-1.41,5-.84-7.56,9.49-15.37,18.65-28,21.63a23.3,23.3,0,0,1-4.35.95c-7,1.48-14.16.63-21.22,1.09l-5.89-.39-.39-1.56c.09-.59.47-1.32.25-1.75-2-4-3.38-8.46-7.34-11a8.1,8.1,0,0,1-3.81-6.09,36.65,36.65,0,0,1-.4-7.82A18.26,18.26,0,0,0,244.84,146a4.07,4.07,0,0,0-1-3.1,88.72,88.72,0,0,1-3.94-8.46c-2.4-6.91-2.9-13.39,2.54-19.68,4.23-4.9,9.19-9.2,12.75-14.69C257.43,98,259.1,95.18,262.35,94.38Zm56.59,17.78h.63l-.14.27-.55-.32c-.44-.41-.83-1.06-1.34-1.19-7.86-1.94-15.22-5.83-23.81-4.89-5.84.64-11.81,0-17.71-.54,6.86,1.71,13.81,1.61,20.77,1.73C304.46,107.36,311.48,110.85,318.94,112.16ZM271,174.26c-2.77-2.5-5.8-2.36-8.75-1.49Z"/><path class="cls-1" d="M448.86,51.37a93.57,93.57,0,0,1,32.41-14.22c13.2-3,26.15-3.43,39.07,1.55,5.58,2.14,11.51,3.41,17,5.89,8.08,3.65,15,8.46,20.2,16.06,2.63,3.85,4.1,7.85,5.65,12,.83,2.22-.07,2.84-2.14,2.13a22.07,22.07,0,0,1-4.17-1.69c-13.75-8.21-28.9-10.71-44.6-11A58.62,58.62,0,0,0,486,67.31C475.93,72,469.07,79.74,464.75,89.84c-1.21,1.29-1.28,2.8-1.19,4.5.12,2.33.42,5.27-1.35,6.71a104.55,104.55,0,0,1-17.82,11.78c-.58.31-1.43,1-1.94.09a2.39,2.39,0,0,1-.12-2.09c2.46-3.58,1.89-7.32.84-11.14-1.29-4.75-6.57-6.81-10.27-3.67-3.23,2.74-6.79,5.21-9.29,8.72-3.18,4.47-6.36,9-9.2,13.66a3.63,3.63,0,0,1-3.3,1.88c-2.27,1.11-3,4.46-6.15,4.32-1.41-.69-.85-1.82-.72-2.92,1.74-14.29.49-28.17-5.89-41.32-.45-.92-1.51-1.86-.25-3h2.29a1.14,1.14,0,0,0,1.58.31c2.44.86,5,1.5,6.25,4.19,1.87,6.67,1.71,13.61,2.78,20.39l-.12,9.74a8,8,0,0,0-.19,4.37c-.05,1.28-1.43,3.14.39,3.62,1.28.35,1.21-1.6,1.27-2.74a2.47,2.47,0,0,0,.4-2.34,64.13,64.13,0,0,0,.21-12.62c.75-4.59,0-9.07-.78-13.58-.58-3.25-1.64-6.44-1.41-9.81l7.64-5.31a10.35,10.35,0,0,0,4.88-2.7,15.12,15.12,0,0,0,7.18-5.5A1.86,1.86,0,0,0,432.09,64l0,0a2.12,2.12,0,0,0,1.67-1.46l5-3.93a1.94,1.94,0,0,0,1.82-1.29L447,52.61A2.1,2.1,0,0,0,448.86,51.37ZM477.63,64.8C495,56.26,513,55.63,531.51,60,519,53.26,491.36,54,477.63,64.8ZM466.92,75.33q-2.19,2.7-4.37,5.41C465.05,79.81,467,78.4,466.92,75.33Zm70.59-15.86c1.66,1.12,3,1.89,4.6,1.82.53,0,.49-1,.18-1.22A3.91,3.91,0,0,0,537.51,59.47Z"/><path class="cls-1" d="M246.82,93.19c2.48-.07,5-.45,7.09,1.5.65,2-.49,3.6-1,5.33-1.27,1.33-2.49,2.72-3.82,4-5.77,5.51-11,11.71-18.67,14.87-2.5,1-5.24.14-7.6,1.47a12.18,12.18,0,0,0-8.84,3.84l10.27-2.6,4.62,0a1.25,1.25,0,0,0,1.57.36c2.8,1.2,5.47,2.44,5.66,6.14.31,5.77,3,10.66,5.95,15.46-.4.64-.11,1.13.35,1.59l2.07,5.92c-.3,1.46.49,2.61,1.07,3.82l.33,1.45a13.28,13.28,0,0,0,.4,6.07,2.72,2.72,0,0,0,.45,2.19,1.17,1.17,0,0,0,.4,1.54l.29,3a1.63,1.63,0,0,0,.67,2l.15,1.6c-1.45.61-3.42.15-4.28,2-.67-.13-1.29-.15-1.49.72a32.87,32.87,0,0,0-12.69,5.35c-.92.63-1.73,1.48-3,.74-7.14-4.2-14.33-8.28-20.72-13.67a10.37,10.37,0,0,0-15.2,1.71c-2.4,3.14-2.24,7.35-5.23,10l-4.37,2.16-1.38.35c-1.46.42-2.43.5-1.82-1.63.48-1.7,1.29-3.4,1-5.27-.3-3.21,1.1-6.21.93-9.47-.77-14.81,1.65-28.92,9.85-41.66a20.67,20.67,0,0,0,3.1-9.61c.89-.32.9-1.11.94-1.83.19-3.24,2.14-4.83,5.1-5.48s6.07-1.23,8.75-2.91a16.65,16.65,0,0,0,6.81-2.9l1.45-.43c2.43.12,4.47-1.06,6.59-2l1.71-.69a2.86,2.86,0,0,0,2.31-.57l1.45-.25A12.54,12.54,0,0,0,234,95.31l3.78-.42c.92.61,1.4,0,1.83-.68,1.88-.21,3.84.11,5.62-.81A1.55,1.55,0,0,0,246.82,93.19Zm-.34,3.69c-4.32-.95-8.49.14-11.11,2.94Z"/><path class="cls-1" d="M325.06,255.77a42.24,42.24,0,0,1-13.47-6.25c-7.15-4.79-15.15-8-22.53-12.37-3.67-2.18-6.75-5.09-10.37-7.26a5.07,5.07,0,0,0-2.4-2.22v0a7.27,7.27,0,0,0-3.91-3.55l-1-.8c-.2-1.86-.56-3.7.24-5.53a5.67,5.67,0,0,0-.71-6c-2.46-3-.55-3.9,2-4.65.6-.18,1.2-.36,1.79-.58L301,196.76l9.07-.59,6.14-.46c1.7.71,3.38.31,5.07-.05a57.27,57.27,0,0,0,14.5.76l2.07.08a2.51,2.51,0,0,0,2.42.12l1.45.24a21.69,21.69,0,0,0,7.58,2.06l1.43.3c1,.6,2.47,1.06.65,2.45-1.57,1.21-3.53,2.34-3.58,4.56-.18,8.88-4,16.58-7.18,24.61-2.58,6.61-7,12.39-8.4,19.52-.5,2.6-1.08,4.92,2,6.3,1.64.73,1.2,1.57-.15,2.23l-1.46-.21ZM315,204.25c-9.86-1.61-18.19,5.1-27.85,4.92C297.14,211.45,305.59,205.32,315,204.25Z"/><path class="cls-1" d="M170,108.05l1.46-.28a2,2,0,0,0,2.32-.4l5.29-.49c.74.42,1.69.06,2.41.81,3.36,3.51,4.9,15.11,2.76,19.64-3.19,6.76-5.93,13.55-6.4,21.3-.36,5.85.89,12.84-6.32,16.54,1.24.19,2.35.48,2.88.05,3.19-2.56,2.62-.13,2.83,1.87.36,3.52-.45,6.95-.41,10.43-1.77,5-5.6,6.56-10.93,4.93-3.78-1.16-7.61-2.11-11.18-3.86-1.42-1.2-.71-2.71-.66-4.17.08-2.31,1.23-4.79-.23-6.9-2.73-3.94-2.53-7.53.32-11.31A41.82,41.82,0,0,0,157.6,150a14.18,14.18,0,0,0,1-12,11.42,11.42,0,0,0-.4,4.17c.42,2.65-.69,4.8-1.77,7-.34.68-.63,1.48-1.55,1.29s-.75-1.17-.72-1.84a19.88,19.88,0,0,0-1.3-8.07c-1.64-4.25-1-8.25-.13-12.49.79-3.65,2.86-6.9,3.11-10.67,2.14-2.41,4-5,6.6-7.06Z"/><path class="cls-1" d="M487,107.57c1.56-2.08,1.35-4.57,1.27-6.88-.09-2.73.93-3.44,3.48-3.22,13.39,1.13,26.15-2,38.54-6.48,7.19-2.63,13.18-7.52,18.82-12.7.75-.69.92-2.45,2.41-1.78s1.69,2,1.75,3.47c.22,5.38-2.23,9.54-5.73,13.33a111.82,111.82,0,0,1-36.46,26.35,6.41,6.41,0,0,0-4.24,1.84A54.37,54.37,0,0,1,492.18,124a3.27,3.27,0,0,0-3,.73l-1.46.31c-6.61,1.83-13.8,0-20.2,3.23a1.19,1.19,0,0,1-1.62-.49c-.4-.78.38-1,.83-1.37a98,98,0,0,1,11.34-7.82A19.24,19.24,0,0,0,487,107.57ZM542.5,91c-9.2.4-10.6,10.24-18.09,14.16,1.59.16,2.28.46,2.71.24C533.61,102.11,535.71,94.06,542.5,91Z"/><path class="cls-1" d="M384.78,79.39a87,87,0,0,0-29-18.33c-2.89-1.16-6.05.93-9.18,1.19C329.7,63.67,313.28,67.56,297,72.4c-21.46,6.37-43.16,12-65.66,13.22a140,140,0,0,1-56.8-8.89c1.29-1.29,2.36-.73,3.38-.39,24.61,8,49.57,8.9,75,4.29,7.37-1.34,15-2.2,22-4.3,8.25-2.46,16.73-3.94,24.89-6.77a168,168,0,0,1,47.07-9.47c.61,0,1.28,0,1.66-.78-2.05-1.66-4.69-2.06-7.17-2.54-14.91-2.9-29.87-2.49-44.84-.41-19.18,2.67-38.16,7-57.7,6.67-10-.18-20-.88-29.53-4.47-3.82-1.45-8.07-5.37-10.72-10.13.23,0,.57,0,.67.1,6.79,9.07,17,10.15,27.08,11.64,11.37,1.68,22.77,1.1,34.07-.17,10-1.12,19.88-3.47,29.87-4.89,14.16-2,28.34-3.61,42.69-1.56a106.25,106.25,0,0,1,29.65,8.2c.79,1.23,2.18,1.58,3.36,2.22a90.94,90.94,0,0,1,19.22,13.42C386,78.2,387.65,79.25,384.78,79.39Z"/><path class="cls-1" d="M369.86,85.22c4.8-1.7,9.51-3.7,14.65-4.23a3.68,3.68,0,0,1,3,1.73c7.25,11.42,10.46,23.44,5.87,36.72-1.17,3.24-3.55,2.35-5.86,1.72a5.59,5.59,0,0,0-3.83-1.23c-3.35-1.31-7.23-1.78-9-5.61-.93-4.48-1.79-9-2.81-13.43-.46-2-.28-4.26-2.05-5.8a.26.26,0,0,0-.21-.36c.06-.71,0-1.3-.9-1.43-.88-1.26-1.08-3.08-2.93-3.53l0-1.72L368,86.36A2.33,2.33,0,0,0,369.86,85.22Z"/><path class="cls-1" d="M153.58,117.7c-2,1.06-1.26-2.86-2.8-1.64s.08,2.71.58,4a3.85,3.85,0,0,1-.07,2.89c-2.35,6.57-3.71,13.07-1.12,20.09,1.46,4,.84,8.43-.27,12.61-.92,3.5-1.86,7-2.89,10.48-1.54,5.19-5.59,6.56-9.93,3.45a2.4,2.4,0,0,1-1-2.28c.66-6.91-.82-13.69-1.33-20.52a56.82,56.82,0,0,1,1.22-14.5l.25-1.45a10.7,10.7,0,0,0,0-7.52l-.25-1.45a1.27,1.27,0,0,0-.58-1.54l-.13-2.3c2.91-3.06,7-3.41,10.69-4.6a3,3,0,0,1,2.72.31c.21.84.46,1.84,1.57,1.49.88-.27.78-1,.19-1.7a2,2,0,0,1,1.51-2.76,5.53,5.53,0,0,1,3.39,1.74c.88.83-.16,1.68-.63,2.5A19.29,19.29,0,0,0,153.58,117.7Z"/><path class="cls-1" d="M237.08,203.11l-1.45.26a2.52,2.52,0,0,0-2.31.53l-8.8,1.92a17.61,17.61,0,0,0-3.7-8.94l2-3.66a2.32,2.32,0,0,0,1.47-2.27l1-1.14c1.85-2.11,3.5-4.34,5.59-6.3,3.34-3.13,7.79-3.6,11.48-5.76l.33-.67.14.31.33,0c1.29-.13,2.63-.14,3.43-1.45l-.15-.18a1.17,1.17,0,0,0,1.6-.19,1.06,1.06,0,0,0,1.13-1c2.91,1,1.59,2.69.52,4.15-1.31,1.8-2.78,3.48-4.39,5.47,3.12.3,4-2,5.46-3.36,1.6-1.54,3-1.51,4.48,0,2.78,2.82,4.07,5.93,1.89,9.71a48.13,48.13,0,0,1-6.18,6.89L242.41,202A8.72,8.72,0,0,0,237.08,203.11Z"/><path class="cls-1" d="M83,196.69a4.62,4.62,0,0,0,2.45,3.52,5.51,5.51,0,0,1,3.12,6c-.26,2.06-2.9,1.26-4.35,2a7.83,7.83,0,0,1-1.39.47A3,3,0,0,0,79.79,210c-4.48,1.36-9.05.84-13.61.62a1,1,0,0,0-1.51-.2c-3.83-.11-7.63-1.06-11.48-.26-2,.41-2-.76-1.72-2.19a1.83,1.83,0,0,0,.93-2l3.92-5.22a10.71,10.71,0,0,0,3.28-4.41c2-4.22,3.95-8.44,6-12.62,1.43-2.88,3.72-4.74,7.07-4.78,3.07,0,2.1,3,3,4.48,3.14,5.43,1.78,9.14-3.71,12.07-1.2.64-3.06.83-3.63,3.11,4.54-1.41,8.51-2.87,11-7.13Z"/><path class="cls-1" d="M338.12,94.89l8-2.67c2.29-.54,4.57-1.09,6.87-1.61,3-.68,5.93-2.06,9-.38l.77.76c.52,1.25,1.8,1.31,2.81,1.79l2.35,2.75a18.33,18.33,0,0,0,.27,1.83c2.13,8.47,1.82,9.09-6.67,10.52-2.79.46-4.81,1.92-5.47,4.32s-2,2-3.63,1.9c-1.24-2-3.35-2-5.34-2.32L341,109.21c-2.51-1.69-5.45-2.34-8.19-3.51q-2.82-4.56,1.25-8.06a2,2,0,0,0,1.85-1.19.35.35,0,0,0,.42-.33A1.77,1.77,0,0,0,338.12,94.89Z"/><path class="cls-1" d="M124,122.7a27.73,27.73,0,0,1,7.23,19.17c0,5.95,1.05,11.9,1.63,17.86.11,1.11.24,2.23.26,3.35.12,5.8-2.71,8.58-8.6,8.34-2.4-.1-2.9-1.92-3.13-3.93-.71-6.2-.26-12.44-.78-18.67A38.65,38.65,0,0,0,118.3,138c-1.73-4.45-2.56-8.88.65-13.1C120.71,124.34,122,122.75,124,122.7Z"/><path class="cls-1" d="M261.44,210.86c-3.67,1.58-4-1.74-5.32-3.61a7.15,7.15,0,0,1-1.25-4.21l0-3.88c.11-.72.21-1.45.32-2.18.77-1.58,1.53-3.15,2.3-4.72l2.07-1a2.36,2.36,0,0,0,2.32-.46l3.07,0c7.16,2,14.39.52,21.56.17,2.47-.12,5.38-.6,7.45-2.62,5-.74,6.68,1.77,4.76,7-2.75,1.2-5.62,2.12-8.38,3.26C280.66,202.61,270.34,205.07,261.44,210.86Zm24.1-18.42c-6.11.13-12.21-.2-18.19.92A46.37,46.37,0,0,0,285.54,192.44Z"/><path class="cls-1" d="M200.84,190.58c-1.2-.58-2.73,0-3.77-1.1L197,187.9l0-1.41c.63-3.92-2.27-5.87-4.65-8-2-1.73-2.28-3.2-.76-5.45,4-6,8.56-6.87,14.23-2.48,4.32,3.34,8.62,6.79,13.65,8.94,3.33,1.43,5.14,3.25,4.78,6.91-1.75.66-1.52,2.88-3,3.76-1.76.27-1.86,1.73-2.18,3l-.79.88-1.54.63-1.88-.29a3,3,0,0,0-2.69-1l-5.23-1.69a1.2,1.2,0,0,0-1.57-.43l-2.2-.26A2.53,2.53,0,0,0,200.84,190.58Zm6.62-9.22a43.85,43.85,0,0,0,5.59,1.81c1.93.37,3.92,1.47,6,.06C215.08,182.89,211.8,179.38,207.46,181.36Z"/><path class="cls-1" d="M47.78,188.63l.5-1.4c4.06-5,7.06-10.89,12.06-15.17,3.1-1,4.49-3.84,6.62-5.88,1.08-.1,2.33-.66,2.9.82.45,1.17-.2,2.05-.88,3-1.25,1.78-3.58,2.58-4.72,5.22,2.92-.49,4.37-2.55,7-3.78-.32,2,.84,3.37,1.21,5.28-5.5.11-8.56,3.1-10.62,7.7-2.32,5.18-3.35,10.94-7,15.53-3.41,3.53-7.27.47-10.89.57a30.32,30.32,0,0,1-5.45-.83c3.09-3.17,7.5-4.66,8.58-9A2,2,0,0,0,47.78,188.63Z"/><path class="cls-1" d="M182.23,198.51c-1.64,1.53-3.89,1.59-5.82,2.4-3.64,1.52-7.62,2-10.95,4.56-2.7,2.11-7.65-.52-8.4-3.95-.24-1.09-.09-2.45-.71-3.24-1.49-1.93-.49-3,1-3.92,6.69-4.29,13.48-8.38,21.57-9.56.33-.05.63-.38.94-.57l3.12-.51.51,4.89C182.71,191.87,183.44,195.31,182.23,198.51Zm-14.88-.68,11.25-6.3A14,14,0,0,0,167.35,197.83Z"/><path class="cls-1" d="M91,176.42c-3.18-2.83-5.13-6.48-7-10.23-.49-1-.6-3-2.7-2.26l0,0c1.38-.95.14-2,0-2.87-.62-2.85-.65-5.53,1-8.06a2.24,2.24,0,0,0,1.18-1.93l3-2.49c1.09.23,1.81.78,1.7,2-.2,2.19,1.18,3.32,2.87,4.24l2.26,2.57a1.7,1.7,0,0,0,1.21,1.6,37.29,37.29,0,0,0,2.28,5.11c3.21,5.09,1.76,10.5,1.94,16.11-3.31-.81-5.33-2.76-7.76-3.91Z"/><path class="cls-1" d="M100.57,144.52a28.86,28.86,0,0,1,5.83,16.68c.25,4.68,2.13,9.51,4.21,14v1.5a2.28,2.28,0,0,0-1.28,1.51c-3.18-1.37-3.57-4.83-5.41-7.21-3.44-4.45-4.82-10.16-8.63-14.4l0,0a10,10,0,0,0-3.18-3.47L90,147.3l4.81-6.77a3.32,3.32,0,0,1,2.84.42Z"/><path class="cls-1" d="M110.65,138.48c5.79,1.69,8,5.48,7.16,11.44a15,15,0,0,0,.54,5.55c1.37,5.65-2.69,8.53-5.94,11.75-1.15,1.15-1.87.55-2.55-1.09-1.61-3.86-1.66-8-1.84-11.92-.21-4.74-3-7.7-5.32-11.11-1.15-1.11-2.72-2.68-1.55-4s3.59-1.55,5.52-1.28A32.67,32.67,0,0,0,110.65,138.48Z"/><path class="cls-1" d="M151,224.49c.86-4.44-.08-9.68.28-14.89.18-2.57.59-5.17,4.33-4.57,3.56.58,4.89,2.63,4.75,5.88-.33,7.9-1.35,15.91,1.77,23.56.52,1.27.55,1.83-1,2.4-6.19,2.21-9,.54-10.06-6.39A46.64,46.64,0,0,1,151,224.49Zm6.41,5.37c.5-4.48,1.26-9-.49-13.36C157.77,221,156,225.44,157.45,229.86Z"/><path class="cls-1" d="M185.9,212l-.32-1.4a1.25,1.25,0,0,0-.51-1.56l-.15-11.23a20.76,20.76,0,0,0,.52-9.14c.68-2.91.44-6,2.1-8.72,4.3-.49,6.48,2.19,5.93,7.31-.38,7.47-2,14.93-.28,22.43-.48,1.56-.13,3.13,0,4.7l-1.28,2.11C190.22,214.5,188.86,212.17,185.9,212Z"/><path class="cls-1" d="M118.15,185.59c1.86-3.06-1-7.66,3.18-9.92,5.46-3,11.23-4.11,17.34-2.31,1.06.32,2,1.2,3.09,1.29,3.59.33,3.86,2.27,2.76,5l-3,3.94-2.36.06a14.43,14.43,0,0,0-5.16,0,13.05,13.05,0,0,0-7.6.44Zm20.8-6.47c-3.16-1.82-6.22-1.24-7.72,1.41C133.89,179.59,136.45,179.72,139,179.12Z"/><path class="cls-1" d="M113.24,184.82c1.12,1.58,3,1.56,4.57,2.05,0,5.32-2.09,10.18-3.44,15.19-1.19,4.36-2.59,8.66-2.83,13.22-.14,2.7-2,3-3.5,1.62-1.08-1-3.71-2-2-4.52.88,1.41,3.21,2.57,3.4,1.19.45-3.2,1.84-6.48.86-10.66a10.15,10.15,0,0,0-1.62,7.27c.35,2.55-1.12,2.31-2.67,2.29-1.47-.78-.54-1.95-.42-2.94.67-5.79,2.23-11.4,3.56-17.05a1.2,1.2,0,0,0,.41-1.58c.4-1.22.79-2.44,1.19-3.66a1.44,1.44,0,0,0,.54-1.55Z"/><path class="cls-1" d="M83.07,183.83c-5-4.36-9.43-9-10.46-16a18.44,18.44,0,0,1,0-5.5c.21-1.9,1.49-3.19,2.61-4.58l1.61-.27c1.8.41,2.4,1.6,2.71,3.36.18,1.1-.42,3.08,1.84,3.11l0,0c-.81,3.69,2.22,6.11,3.06,9.26.6,2.25,1.63,4.41,2.06,6.69.69,3.64-.37,4.87-3.71,5l0,.07A.66.66,0,0,0,83.07,183.83Z"/><path class="cls-1" d="M225.08,210.48a5,5,0,0,0,.89,3,2.55,2.55,0,0,0,.66,2.28c.11,5.87,1.25,11.62,1.91,17.43.2,1.78.11,3.1-2.11,3.48-1.9.32-3.28.35-4.25-1.76-1.07-2.3-2.08-4.7-2.06-7.12,0-5.69-1.38-11.08-2.67-16.52a3.32,3.32,0,0,0,.2-3.09l.51-1.57,4.19.64,2,1.76A1.47,1.47,0,0,0,225.08,210.48Zm-2,17.73c1.64-5,.94-8.29-2.94-10.94,1.49,2.14,1.1,4,1.79,5.72C222.54,224.56,221.21,226.73,223.06,228.21Z"/><path class="cls-1" d="M46.66,186.62c-4.44-.84-7.13-3.72-8.75-7.72-.59-1.47-.69-2.24,1.71-2.23A23.42,23.42,0,0,0,51,173.76a6.44,6.44,0,0,1,4.63-.81C51.79,176.93,49.58,182,46.66,186.62Z"/><path class="cls-1" d="M190.18,219a3.42,3.42,0,0,1,3.52,1,63.34,63.34,0,0,1,9.69,12.32c.65,1,1.63,2.35.43,3.38-1.41,1.2-2.6-.14-3.51-1.09a30,30,0,0,1-3.25-4.1c-1.83-2.69-3.57-5.38-6.73-6.81a3.56,3.56,0,0,1-2-3.75C188.48,218.36,189.88,219.09,190.18,219Z"/><path class="cls-1" d="M240.61,249.93a1.62,1.62,0,0,1-2.33,1.4c-5.89-1.87-9.69-6.24-13.06-11.09-.37-.53-.52-1.52.15-1.53,1.42,0,3.21-1.91,4.11-.32,2.31,4.09,6.28,6.27,9.56,9.24A10.55,10.55,0,0,1,240.61,249.93Z"/><path class="cls-1" d="M91,179c1.23.82,2.45,1.67,3.7,2.47,3.21,2.06,3.49,5.09.39,7.11-1.76,1.15-3.57,3.6-5.91,2.2s-1.58-4.17-1.14-6.5c.38-2.08.84-4.16.13-6.27Z"/><path class="cls-1" d="M106.79,219.49c3-.47,4.48.07,5.45,3,1.18,3.54,3.39,6.75,5.23,10.06.38.68,1,1.29.24,1.91s-1.37,0-2-.36c-3.32-2-4.55-5.44-6.17-8.61C108.58,223.61,107.78,221.67,106.79,219.49Z"/><path class="cls-1" d="M392.83,76c-.46,2.89-1.66.84-2.19.19-2.57-3.16-6-5.23-9.17-7.66-4.46-3.45-9.84-4.73-15.71-6.49l3.8-.55C379.75,62.42,386.46,68.93,392.83,76Z"/><path class="cls-1" d="M113.51,129.39c.85,2.79.89,5.77,2.34,8.76l-5.16-.7c-1.57-1.65-3.51-.25-5.25-.61-.94-.2-2.06.14-2.66-.86-.82-1.39.89-1.47,1.35-2.18a14.91,14.91,0,0,1,2.63-2.57,2.16,2.16,0,0,0,2.34-.39Z"/><path class="cls-1" d="M133.89,130.83c-.71.53-.29,1.77-1.65,2.21a18.35,18.35,0,0,0-5.87-10.48c.46-2.65,2.83-3.07,4.69-3.15s1.89,2.21,2.34,3.69C134.19,125.64,133.85,128.25,133.89,130.83Z"/><path class="cls-1" d="M191,112.78c-1.16,1.88-1.12,4.27-3,6.49-.58-4.81-2.94-8.55-4.68-12.55,1.94-.88,4-.25,5.77.19C192.58,107.73,190.44,110.77,191,112.78Z"/><path class="cls-1" d="M169.24,248.42c-3.54,0-11-5-11.54-7.32-.25-1.12.6-1.26,1.28-1.4,1.13-.23,2.05-2.32,3.46-.4C164.61,242.27,166.83,245.19,169.24,248.42Z"/><path class="cls-1" d="M263.25,212c.69-.26,1.38-.51,2.06-.8,3-1.28,4.15,0,4.08,2.94,0,1.48-.14,2.95-.22,4.42v0l-2,1.54C262,219.21,263.26,215.29,263.25,212Z"/><path class="cls-1" d="M112.86,174.42c-1.64-4.75,2.45-6.38,5.18-10,.24,4,2.2,7.09-.67,9.93C115.86,174.12,114.38,175.42,112.86,174.42Z"/><path class="cls-1" d="M470.18,214.74c-.42.43-.87.83-1.25,1.29-1.06,1.3-2.14,3.58-3.88,2.52-1.56-1-.15-3.14.31-4.72a21.09,21.09,0,0,1,1.29-2.67,2.61,2.61,0,0,1,3.35-1.53c2.09.46,1.36,1.89,1.2,3.14Z"/><path class="cls-1" d="M84.26,194.38c-1.74-3.39-3.28-6.9-5.68-10,1.56-1.05,2,1.29,3.18.9.45.3.78.2,1-.29l0-.07c-.84,2.8,2.2,3.19,3.13,4.93C87.08,192.09,88,193.94,84.26,194.38Z"/><path class="cls-1" d="M102.31,173.71c.47.82.94,1.64,1.4,2.46,2.78,4.92,2.19,6.1-3.75,7.41-.46-1.3.94-2.56.13-3.86,0-.62,1.72-.45.7-1.53.64-1.47.92-2.89-.6-4.05C101,174.57,101.43,173,102.31,173.71Z"/><path class="cls-1" d="M148.32,175.9c-.6-3.38,1-6.21,2.35-9.19a14,14,0,0,1,.38,9.83C150.14,176.34,149,177,148.32,175.9Z"/><path class="cls-1" d="M471.05,94.05c-.45,2.47-3.1,2.55-4.5,4-.66.71-1.11-.33-1.24-1.12a9.71,9.71,0,0,1,.79-5.77C467.48,92.61,468.94,93.89,471.05,94.05Z"/><path class="cls-1" d="M510.3,132.6a35.93,35.93,0,0,0-3.82-7.89C512.13,126.52,512.66,127.6,510.3,132.6Z"/><path class="cls-1" d="M155,201c-.18.77.37,2.06-1.1,1.85-1.11-.16-2.25-.82-2.21-2.13a2.27,2.27,0,0,1,1.79-2.14C155.18,198.42,154.73,200,155,201Z"/><path class="cls-1" d="M219.73,200.69c1.74.89,1.8,2.61,1.37,4-.27.92-1.44-.13-2.22-.21C219.09,203.21,218.42,201.73,219.73,200.69Z"/><path class="cls-1" d="M363.45,148.83c6.61-.94,13.3-1,19.4-4.74,6.81-4.22,12.38-9.27,15.43-16.76.38-.93,2.32-2.14.49-3-1.36-.66-3.11-1.23-4.5,1a29,29,0,0,1-12.08,10.81A24.12,24.12,0,0,1,371,138.71c-1,0-2.79,1.2-2.89-1-.08-1.76,1.48-2.07,3-2.16a29.39,29.39,0,0,0,13.23-3.84c4.39-2.54,8.43-5.49,10.11-10.64,4.46-6.52,3.8-13.67,2.49-20.87a49,49,0,0,0-8.15-19.89c5.81-2.6,6-2.5,8.37,3.15,5.32,12.61,7.11,25.63,4.63,39.16-.13.72-.41,1.46.12,2.15-4.87,16.75-19.68,25.9-35.53,26.36C364.26,151.23,363.8,150.34,363.45,148.83Z"/><path class="cls-1" d="M351.6,147.59l6.65-2.07c2.1.61,4.92.08,5.27,3.38C360.18,152.43,355,150.52,351.6,147.59Z"/><path class="cls-1" d="M363.53,116.09a1.34,1.34,0,0,0-.31-.22c-1.54-.65-4.06-.5-4.05-2.66,0-2.33,2.52-2.36,4.28-2.84a3.58,3.58,0,0,1,1.48-.25c2,.36,3.62-2.83,5.3-1.26,1.3,1.2,1.49,3.59,2.17,5.46C370,117.57,366.51,115.62,363.53,116.09Z"/><path class="cls-1" d="M362.78,138.65c-4.67-2-9.86-1.59-15.46-3.16,3.21-1.62,6.4-.75,8.63-2.7,2.51.55,5.07.94,7.51,1.72,1.1.35,3.11.25,2.85,2.29S364.25,138.57,362.78,138.65Z"/><path class="cls-1" d="M315.68,134.49c-1.86-.52-4.55-.78-4.66-3.58s1.66-4.47,4.54-4.29c2.14.14,4.79,0,5.15,3.06C321,132.17,318.56,134.48,315.68,134.49Z"/><path class="cls-1" d="M111.65,378.8H100.44L57.28,313.94h-.23V378.8H46.68V296.19H57.84L101,361.05h.23V296.19h10.42Z"/><path class="cls-1" d="M180.56,351.47H135.77q.61,9.91,5.66,15.15A16.73,16.73,0,0,0,154,371.86a15.37,15.37,0,0,0,9.75-3.07q3.94-3.06,6-9.27l10.43,1.3q-2.53,9.36-9.3,14.37t-16.91,5q-13.46,0-21-8.25t-7.58-22.57q0-14.14,7.35-22.93t20.71-8.79a29.08,29.08,0,0,1,12.59,2.87,24.6,24.6,0,0,1,10.29,9.78Q180.56,337.21,180.56,351.47Zm-10.42-8.34q-.62-9.13-5.66-13.16a17.34,17.34,0,0,0-11-4,15.68,15.68,0,0,0-11.78,4.79,20,20,0,0,0-5.35,12.4Z"/><path class="cls-1" d="M244.74,351.47H200q.62,9.91,5.66,15.15a16.73,16.73,0,0,0,12.59,5.24,15.37,15.37,0,0,0,9.75-3.07q3.95-3.06,6-9.27l10.42,1.3q-2.53,9.36-9.29,14.37t-16.91,5q-13.47,0-21-8.25t-7.58-22.57q0-14.14,7.35-22.93t20.71-8.79a29.11,29.11,0,0,1,12.59,2.87,24.6,24.6,0,0,1,10.29,9.78Q244.74,337.21,244.74,351.47Zm-10.42-8.34q-.63-9.13-5.66-13.16a17.34,17.34,0,0,0-11-4,15.68,15.68,0,0,0-11.78,4.79,20,20,0,0,0-5.35,12.4Z"/><path class="cls-1" d="M305.31,378.8h-9.46v-7.61h-.23q-5.46,9-16.51,9a23.05,23.05,0,0,1-18.34-8.7q-7.35-8.72-7.35-22.57,0-14.48,6.93-22.88t18.31-8.39q10.71,0,16.29,8.17h.22V296.19h10.14Zm-25.13-6.94a14.23,14.23,0,0,0,11.27-5.46q4.62-5.46,4.62-16.57,0-10.92-4.22-17.41a13.62,13.62,0,0,0-12.12-6.48q-7.89,0-11.91,6.34t-4,16.65a32.45,32.45,0,0,0,2.17,12.6,16.75,16.75,0,0,0,6.05,7.74A14.51,14.51,0,0,0,280.18,371.86Z"/><path class="cls-1" d="M378.4,306H333.6v25.58h38.82v9.8H333.6V378.8H322.67V296.19H378.4Z"/><path class="cls-1" d="M416,317.66q12.11,0,20.09,7.89T444,348q0,17.64-8.62,24.94A29.32,29.32,0,0,1,416,380.2a28.45,28.45,0,0,1-19.67-7.49q-8.34-7.5-8.34-23.78,0-15.78,8.06-23.52A27.64,27.64,0,0,1,416,317.66Zm0,54.2q8.67,0,13.18-6.42t4.51-16.9q0-11.22-5.1-16.91A16.26,16.26,0,0,0,416,325.94a16,16,0,0,0-12.68,5.78q-4.95,5.77-5,17.21t5.05,17.16A16,16,0,0,0,416,371.86Z"/><path class="cls-1" d="M488.05,320.87l-3.5,9.35a14.63,14.63,0,0,0-7.38-2.19,9.38,9.38,0,0,0-8.62,5.1q-2.93,5.1-2.93,14.28V378.8H455.48V319h9.24v9h.22q4.85-10.36,12.68-10.37A19.86,19.86,0,0,1,488.05,320.87Z"/><path class="cls-1" d="M495.43,296.19h31.16a96.2,96.2,0,0,1,12.7.73,23.15,23.15,0,0,1,9.89,3.81,19.19,19.19,0,0,1,6.9,8.34,26.82,26.82,0,0,1,2.34,11q0,11.44-7.35,18.34t-23.58,6.91H506.36V378.8H495.43Zm10.93,39.33H527.6q19.5,0,19.5-15.1a15.41,15.41,0,0,0-2.54-8.76,10.63,10.63,0,0,0-6.23-4.74,48.78,48.78,0,0,0-11-.92h-21Z"/></svg>